<svg id="Warstwa_1" data-name="Warstwa 1" xmlns="http://www.w3.org/2000/svg" xmlns:xlink="http://www.w3.org/1999/xlink" viewBox="0 0 60 40"><defs><style>.cls-1{fill:url(#linear-gradient);}</style><linearGradient id="linear-gradient" x1="13.61" y1="0.22" x2="43.03" y2="29.64" gradientUnits="userSpaceOnUse"><stop offset="0" stop-color="#4bbcce"/><stop offset="0.25" stop-color="#3da5b9"/><stop offset="0.5" stop-color="#357aac"/><stop offset="0.75" stop-color="#0b4984"/><stop offset="1" stop-color="#1a2a4f"/></linearGradient></defs><title>Accept payments for your products and services</title><path class="cls-1" d="M42.17,8.52H17.52a1.69,1.69,0,0,0-1.69,1.69V21a1.71,1.71,0,0,0,1.69,1.69h4.2v5.64a2.21,2.21,0,0,0,2.22,2.22H35.75A2.22,2.22,0,0,0,38,28.36V22.72h4.2A1.72,1.72,0,0,0,43.86,21V10.21A1.71,1.71,0,0,0,42.17,8.52ZM21.72,17.08h-1a.27.27,0,0,1-.27-.27V15a.28.28,0,0,1,.27-.28h1ZM23.94,29.6a1.24,1.24,0,0,1-1.24-1.24V14.7h7.84V29.6Zm11.81,0H34.33V14.7H37V28.36A1.24,1.24,0,0,1,35.75,29.6ZM38,14.7h1a.28.28,0,0,1,.27.28V16.8a.28.28,0,0,1-.27.27H38ZM42.69,21a.54.54,0,0,1-.52.52H38V18.24h1a1.45,1.45,0,0,0,1.44-1.44V15A1.44,1.44,0,0,0,39,13.54H20.72A1.44,1.44,0,0,0,19.28,15V16.8a1.45,1.45,0,0,0,1.44,1.44h1v3.31h-4.2A.53.53,0,0,1,17,21V10.21a.52.52,0,0,1,.52-.53H42.17a.55.55,0,0,1,.52.53Z"/></svg>