<svg id="Warstwa_1" data-name="Warstwa 1" xmlns="http://www.w3.org/2000/svg" xmlns:xlink="http://www.w3.org/1999/xlink" viewBox="0 0 60 40"><defs><style>.cls-1{fill:url(#linear-gradient);}</style><linearGradient id="linear-gradient" x1="12" y1="1.84" x2="41.42" y2="31.26" gradientUnits="userSpaceOnUse"><stop offset="0" stop-color="#4bbcce"/><stop offset="0.25" stop-color="#3da5b9"/><stop offset="0.5" stop-color="#357aac"/><stop offset="0.75" stop-color="#0b4984"/><stop offset="1" stop-color="#1a2a4f"/></linearGradient></defs><title>Any cryptocurrency to any payment card</title><path class="cls-1" d="M11.78,16.33l.52-3.63a.65.65,0,0,0-.56-.74L8.1,11.44a.71.71,0,0,0-.38.06.7.7,0,0,0-.36.5.65.65,0,0,0,.56.74L9.73,13a13.92,13.92,0,0,0-1,1A15.88,15.88,0,0,0,7.09,16.1,15,15,0,0,0,5.9,18.43a14.29,14.29,0,0,0-.75,2.49,15,15,0,0,0-.31,2.59c0,.12,0,.23,0,.35.06.74,1.36.62,1.3-.15a.86.86,0,0,0,0-.16,13.57,13.57,0,0,1,.28-2.37,13.18,13.18,0,0,1,.69-2.27,13.2,13.2,0,0,1,2.54-4,12,12,0,0,1,1.16-1.09l-.34,2.36a.66.66,0,0,0,1.3.18M41.89,28.7l-3.42-2,3.42,4.81,3.42-4.81Zm0-8.6-3.42,5.67,3.42,2,3.41-2Zm-23.65,3h0a1.81,1.81,0,0,1,.94.19.72.72,0,0,1,.3.65.84.84,0,0,1-.3.68,1.44,1.44,0,0,1-1,.26h-.83V23.11Zm-.83,3.1h1a2.13,2.13,0,0,1,1.1.22.8.8,0,0,1,.37.75c0,.71-.49,1.06-1.47,1.06h-1Zm.19-5.68v1.2h-1v-1.2h-1v1.2h-1v1.38h1v5.13h-1v1.38h1v1.07h1V29.62h1.07v1.07h1V29.61a4.73,4.73,0,0,0,1-.13,2.94,2.94,0,0,0,1-.42,2,2,0,0,0,.65-.72,2.13,2.13,0,0,0,.24-1,2.16,2.16,0,0,0-.11-.71,1.57,1.57,0,0,0-.3-.54,1.82,1.82,0,0,0-.45-.38,2.13,2.13,0,0,0-.56-.23v0a1.21,1.21,0,0,0,.43-.27,1.57,1.57,0,0,0,.32-.41,2.21,2.21,0,0,0,.21-.5,1.93,1.93,0,0,0,.07-.53,1.83,1.83,0,0,0-.22-1,1.7,1.7,0,0,0-.62-.6,2.57,2.57,0,0,0-.92-.32,5.58,5.58,0,0,0-.85-.08V20.53Zm25.12-3.09c-.27,0-.55,0-.83,0a8.53,8.53,0,0,0-8.12,5.94H25.93a8.54,8.54,0,0,0-8.12-5.94c-.29,0-.57,0-.85,0v-3.7H42.72Zm0-8.36H17V7.35a1.52,1.52,0,0,1,1.52-1.52H41.2a1.52,1.52,0,0,1,1.52,1.52ZM17.81,18.71a7.23,7.23,0,1,1-7.23,7.23,7.23,7.23,0,0,1,7.23-7.23m16.86,7.22a7.22,7.22,0,1,1,7.22,7.21,7.23,7.23,0,0,1-7.22-7.21m9.26-8.27V7.35A2.73,2.73,0,0,0,41.2,4.63H18.48a2.72,2.72,0,0,0-2.72,2.72V17.66a8.53,8.53,0,1,0,10.58,8.28,9.22,9.22,0,0,0-.12-1.4h7.27a7.89,7.89,0,0,0-.13,1.39,8.53,8.53,0,1,0,10.57-8.27m10.91,5.85a14.08,14.08,0,0,0-.3-2.59,14.32,14.32,0,0,0-.76-2.49,13.46,13.46,0,0,0-1.19-2.33A14.35,14.35,0,0,0,51,14a13.77,13.77,0,0,0-1-1l1.81-.25a.65.65,0,0,0,.55-.74.67.67,0,0,0-.36-.5.68.68,0,0,0-.38-.06L48,12a.67.67,0,0,0-.56.75l.51,3.63a.67.67,0,0,0,.75.56.66.66,0,0,0,.55-.74l-.33-2.36A13.13,13.13,0,0,1,50,14.88a13.66,13.66,0,0,1,1.47,1.91,14.58,14.58,0,0,1,1.08,2.12,14.12,14.12,0,0,1,.69,2.27,13.55,13.55,0,0,1,.27,2.37.86.86,0,0,1,0,.16c-.05.77,1.25.89,1.31.15,0-.12,0-.23,0-.35"/></svg>