<svg id="Warstwa_1" data-name="Warstwa 1" xmlns="http://www.w3.org/2000/svg" xmlns:xlink="http://www.w3.org/1999/xlink" viewBox="0 0 60 40"><defs><style>.cls-1{fill:url(#linear-gradient);}.cls-2{fill:url(#linear-gradient-2);}.cls-3{fill:url(#linear-gradient-3);}.cls-4{fill:url(#linear-gradient-4);}.cls-5{fill:url(#linear-gradient-5);}.cls-6{fill:url(#linear-gradient-6);}.cls-7{fill:url(#linear-gradient-7);}.cls-8{fill:url(#linear-gradient-8);}.cls-9{fill:url(#linear-gradient-9);}.cls-10{fill:url(#linear-gradient-10);}.cls-11{fill:url(#linear-gradient-11);}.cls-12{fill:url(#linear-gradient-12);}.cls-13{fill:url(#linear-gradient-13);}.cls-14{fill:url(#linear-gradient-14);}</style><linearGradient id="linear-gradient" x1="5.92" y1="7.91" x2="35.34" y2="37.33" gradientUnits="userSpaceOnUse"><stop offset="0" stop-color="#4bbcce"/><stop offset="0.25" stop-color="#3da5b9"/><stop offset="0.5" stop-color="#357aac"/><stop offset="0.75" stop-color="#0b4984"/><stop offset="1" stop-color="#1a2a4f"/></linearGradient><linearGradient id="linear-gradient-2" x1="7.46" y1="6.38" x2="36.88" y2="35.8" xlink:href="#linear-gradient"/><linearGradient id="linear-gradient-3" x1="10.53" y1="3.31" x2="39.95" y2="32.73" xlink:href="#linear-gradient"/><linearGradient id="linear-gradient-4" x1="13.6" y1="0.23" x2="43.02" y2="29.66" xlink:href="#linear-gradient"/><linearGradient id="linear-gradient-5" x1="8.99" y1="4.84" x2="38.41" y2="34.26" xlink:href="#linear-gradient"/><linearGradient id="linear-gradient-6" x1="12.06" y1="1.77" x2="41.49" y2="31.19" xlink:href="#linear-gradient"/><linearGradient id="linear-gradient-7" x1="12.06" y1="1.77" x2="41.49" y2="31.19" xlink:href="#linear-gradient"/><linearGradient id="linear-gradient-8" x1="15.13" y1="-1.3" x2="44.56" y2="28.12" xlink:href="#linear-gradient"/><linearGradient id="linear-gradient-9" x1="18.21" y1="-4.37" x2="47.63" y2="25.05" xlink:href="#linear-gradient"/><linearGradient id="linear-gradient-10" x1="16.67" y1="-2.84" x2="46.09" y2="26.58" xlink:href="#linear-gradient"/><linearGradient id="linear-gradient-11" x1="6.88" y1="6.96" x2="36.3" y2="36.38" xlink:href="#linear-gradient"/><linearGradient id="linear-gradient-12" x1="17.25" y1="-3.42" x2="46.67" y2="26" xlink:href="#linear-gradient"/><linearGradient id="linear-gradient-13" x1="5.46" y1="8.37" x2="34.88" y2="37.79" xlink:href="#linear-gradient"/><linearGradient id="linear-gradient-14" x1="18.67" y1="-4.83" x2="48.09" y2="24.59" xlink:href="#linear-gradient"/></defs><title>API Integration for eCommerce</title><path class="cls-1" d="M23.7,28.15a2.46,2.46,0,1,1,2.46-2.46A2.46,2.46,0,0,1,23.7,28.15Zm0-3.69a1.23,1.23,0,1,0,1.23,1.23A1.23,1.23,0,0,0,23.7,24.46Z"/><path class="cls-2" d="M20.63,22a2.46,2.46,0,1,1,2.46-2.46A2.46,2.46,0,0,1,20.63,22Zm0-3.69a1.23,1.23,0,1,0,1.23,1.23A1.23,1.23,0,0,0,20.63,18.32Z"/><path class="cls-3" d="M26.77,22a2.46,2.46,0,1,1,2.46-2.46A2.47,2.47,0,0,1,26.77,22Zm0-3.69A1.23,1.23,0,1,0,28,19.55,1.23,1.23,0,0,0,26.77,18.32Z"/><path class="cls-4" d="M32.91,22a2.46,2.46,0,1,1,2.46-2.46A2.46,2.46,0,0,1,32.91,22Zm0-3.69a1.23,1.23,0,1,0,1.23,1.23A1.23,1.23,0,0,0,32.91,18.32Z"/><path class="cls-5" d="M29.84,28.15a2.46,2.46,0,1,1,2.46-2.46A2.46,2.46,0,0,1,29.84,28.15Zm0-3.69a1.23,1.23,0,1,0,1.23,1.23A1.24,1.24,0,0,0,29.84,24.46Z"/><path class="cls-6" d="M36,28.15a2.46,2.46,0,1,1,2.46-2.46A2.46,2.46,0,0,1,36,28.15Zm0-3.69a1.23,1.23,0,1,0,1.23,1.23A1.23,1.23,0,0,0,36,24.46Z"/><path class="cls-7" d="M23.7,15.86a2.46,2.46,0,1,1,2.46-2.45A2.46,2.46,0,0,1,23.7,15.86Zm0-3.68a1.23,1.23,0,1,0,1.23,1.23A1.23,1.23,0,0,0,23.7,12.18Z"/><path class="cls-8" d="M29.84,15.86a2.46,2.46,0,1,1,2.46-2.45A2.45,2.45,0,0,1,29.84,15.86Zm0-3.68a1.23,1.23,0,1,0,1.23,1.23A1.24,1.24,0,0,0,29.84,12.18Z"/><path class="cls-9" d="M36,15.86a2.46,2.46,0,1,1,2.46-2.45A2.45,2.45,0,0,1,36,15.86Zm0-3.68a1.23,1.23,0,1,0,1.23,1.23A1.23,1.23,0,0,0,36,12.18Z"/><path class="cls-10" d="M39.06,22a2.46,2.46,0,1,1,2.45-2.46A2.46,2.46,0,0,1,39.06,22Zm0-3.69a1.23,1.23,0,1,0,1.22,1.23A1.23,1.23,0,0,0,39.06,18.32Z"/><rect class="cls-11" x="29.23" y="27.53" width="1.23" height="4.78"/><rect class="cls-12" x="29.23" y="6.79" width="1.23" height="4.78"/><rect class="cls-13" x="14.49" y="18.93" width="4.3" height="1.23"/><rect class="cls-14" x="40.9" y="18.93" width="4.3" height="1.23"/></svg>