<svg id="Warstwa_1" data-name="Warstwa 1" xmlns="http://www.w3.org/2000/svg" xmlns:xlink="http://www.w3.org/1999/xlink" viewBox="0 0 60 40"><defs><style>.cls-1{fill-rule:evenodd;fill:url(#linear-gradient);}</style><linearGradient id="linear-gradient" x1="12.85" y1="0.98" x2="42.28" y2="30.4" gradientUnits="userSpaceOnUse"><stop offset="0" stop-color="#4bbcce"/><stop offset="0.25" stop-color="#3da5b9"/><stop offset="0.5" stop-color="#357aac"/><stop offset="0.75" stop-color="#0b4984"/><stop offset="1" stop-color="#1a2a4f"/></linearGradient></defs><title>Best execution engine</title><path class="cls-1" d="M36.11,9.14V25.29h3.16v3.77h-9V22.41a1.54,1.54,0,1,0-.9,0v2H27.14V16h5.41v8.34H31.19v.91h2.26V9.14H26.23V25.29h3.16v3.77h-9V22.41a1.54,1.54,0,1,0-.9,0v2H17.26V16h5.41v8.34H21.32v.91h2.26V9.14H16.36V25.29h3.16V30H40.17v-.9h0V22.41a1.55,1.55,0,1,0-.9,0v2H37V16h5.41v8.34H41.07v.91h2.26V9.14Zm-9,.91h5.41v1.48H27.14Zm0,2.39h5.41v.9H27.14Zm0,1.8h5.41v.9H27.14Zm-9.88-4.19h5.41v1.48H17.26Zm0,2.39h5.41v.9H17.26Zm0,1.8h5.41v.9H17.26Zm2.07,6.69a.64.64,0,0,1,1.28,0,.64.64,0,0,1-1.28,0Zm9.87,0a.64.64,0,0,1,.64-.64.64.64,0,1,1-.64.64Zm9.88,0a.64.64,0,0,1,.64-.64.64.64,0,0,1,.64.64.64.64,0,0,1-1.28,0Zm3.34-5.79H37v-.9h5.41Zm0-1.8H37v-.9h5.41Zm0-1.81H37V10.05h5.41Z"/></svg>