<svg id="Warstwa_1" data-name="Warstwa 1" xmlns="http://www.w3.org/2000/svg" xmlns:xlink="http://www.w3.org/1999/xlink" viewBox="0 0 60 40"><defs><style>.cls-1{fill:url(#linear-gradient);}</style><linearGradient id="linear-gradient" x1="12.06" y1="1.77" x2="41.49" y2="31.19" gradientUnits="userSpaceOnUse"><stop offset="0" stop-color="#4bbcce"/><stop offset="0.25" stop-color="#3da5b9"/><stop offset="0.5" stop-color="#357aac"/><stop offset="0.75" stop-color="#0b4984"/><stop offset="1" stop-color="#1a2a4f"/></linearGradient></defs><title>Card</title><path class="cls-1" d="M40.72,10H19a2.61,2.61,0,0,0-2.61,2.61V26.47A2.61,2.61,0,0,0,19,29.08H40.72a2.61,2.61,0,0,0,2.61-2.61V12.62A2.61,2.61,0,0,0,40.72,10ZM19,11.17H40.72a1.46,1.46,0,0,1,1.46,1.45v1.66H17.51V12.62A1.45,1.45,0,0,1,19,11.17ZM40.72,27.93H19a1.46,1.46,0,0,1-1.46-1.46V18.74H42.18v7.73A1.46,1.46,0,0,1,40.72,27.93Z"/></svg>