<svg id="Warstwa_1" data-name="Warstwa 1" xmlns="http://www.w3.org/2000/svg" xmlns:xlink="http://www.w3.org/1999/xlink" viewBox="0 0 60 40"><defs><style>.cls-1{fill:url(#linear-gradient);}</style><linearGradient id="linear-gradient" x1="17.43" y1="8.82" x2="38.86" y2="30.24" gradientUnits="userSpaceOnUse"><stop offset="0" stop-color="#4bbcce"/><stop offset="0.25" stop-color="#3da5b9"/><stop offset="0.5" stop-color="#357aac"/><stop offset="0.75" stop-color="#0b4984"/><stop offset="1" stop-color="#1a2a4f"/></linearGradient></defs><title>Cloud</title><path class="cls-1" d="M41.85,15.48a5,5,0,0,0-5.32-4.64h-.08a8.82,8.82,0,0,0-7.59-4.09A9,9,0,0,0,20,15a6.89,6.89,0,0,0,.74,13.75h6.13a4.35,4.35,0,0,0,4.34-4.34v-.71l.74.74a.77.77,0,0,0,1.08,0,.76.76,0,0,0,.23-.54.73.73,0,0,0-.23-.54l-2-2a.79.79,0,0,0-1.09,0l-2,2a.76.76,0,0,0-.22.54.79.79,0,0,0,.22.54.78.78,0,0,0,1.08,0l.74-.74v.71a2.81,2.81,0,0,1-2.81,2.81H20.69a5.37,5.37,0,0,1,0-10.73h.77v-.77a7.41,7.41,0,0,1,7.4-7.4A7.27,7.27,0,0,1,35.35,12l.21.39h1a3.56,3.56,0,0,1,3.83,3.83V17h.76c2.48,0,4.35,2.09,4.35,4.85a5.38,5.38,0,0,1-5.37,5.37H34a4.35,4.35,0,0,0-4.34,4.34v.71l-.74-.74a.76.76,0,0,0-1.3.54.76.76,0,0,0,.22.54l2,2.05a.79.79,0,0,0,1.09,0l2-2.05a.73.73,0,0,0,.23-.54A.74.74,0,0,0,33,31.5a.78.78,0,0,0-1.08,0l-.74.74v-.71A2.81,2.81,0,0,1,34,28.72H40.1a6.9,6.9,0,0,0,6.9-6.9A6.08,6.08,0,0,0,41.85,15.48Z"/></svg>