<svg id="Warstwa_1" data-name="Warstwa 1" xmlns="http://www.w3.org/2000/svg" xmlns:xlink="http://www.w3.org/1999/xlink" viewBox="0 0 60 40"><defs><style>.cls-1{fill:url(#linear-gradient);}.cls-2{fill:url(#linear-gradient-2);}.cls-3{fill:url(#linear-gradient-3);}.cls-4{fill:url(#linear-gradient-4);}.cls-5{fill:url(#linear-gradient-5);}.cls-6{fill:url(#linear-gradient-6);}.cls-7{fill:url(#linear-gradient-7);}.cls-8{fill:url(#linear-gradient-9);}.cls-9{fill:url(#linear-gradient-10);}.cls-10{fill:url(#linear-gradient-11);}.cls-11{fill:url(#linear-gradient-12);}</style><linearGradient id="linear-gradient" x1="23.18" y1="-9.35" x2="52.6" y2="20.07" gradientUnits="userSpaceOnUse"><stop offset="0" stop-color="#4bbcce"/><stop offset="0.25" stop-color="#3da5b9"/><stop offset="0.5" stop-color="#357aac"/><stop offset="0.75" stop-color="#0b4984"/><stop offset="1" stop-color="#1a2a4f"/></linearGradient><linearGradient id="linear-gradient-2" x1="22.05" y1="-8.22" x2="51.47" y2="21.2" xlink:href="#linear-gradient"/><linearGradient id="linear-gradient-3" x1="24.31" y1="-10.47" x2="53.73" y2="18.95" xlink:href="#linear-gradient"/><linearGradient id="linear-gradient-4" x1="19.8" y1="-5.96" x2="49.22" y2="23.46" xlink:href="#linear-gradient"/><linearGradient id="linear-gradient-5" x1="20.93" y1="-7.09" x2="50.35" y2="22.33" xlink:href="#linear-gradient"/><linearGradient id="linear-gradient-6" x1="25.45" y1="-11.61" x2="54.87" y2="17.81" xlink:href="#linear-gradient"/><linearGradient id="linear-gradient-7" x1="23.18" y1="-9.35" x2="52.6" y2="20.07" xlink:href="#linear-gradient"/><linearGradient id="linear-gradient-9" x1="20.93" y1="-7.09" x2="50.35" y2="22.33" xlink:href="#linear-gradient"/><linearGradient id="linear-gradient-10" x1="22.05" y1="-8.22" x2="51.47" y2="21.2" xlink:href="#linear-gradient"/><linearGradient id="linear-gradient-11" x1="19.8" y1="-5.97" x2="49.22" y2="23.46" xlink:href="#linear-gradient"/><linearGradient id="linear-gradient-12" x1="8.72" y1="5.11" x2="38.14" y2="34.54" xlink:href="#linear-gradient"/></defs><title>eCommerce Plugin</title><rect class="cls-1" x="38.14" y="5.59" width="1.13" height="1.17"/><rect class="cls-2" x="35.88" y="5.59" width="1.13" height="1.17"/><rect class="cls-3" x="40.39" y="5.59" width="1.13" height="1.17"/><rect class="cls-4" x="31.37" y="5.59" width="1.13" height="1.17"/><rect class="cls-5" x="33.63" y="5.59" width="1.13" height="1.17"/><rect class="cls-6" x="42.65" y="5.59" width="1.17" height="1.17"/><rect class="cls-7" x="42.65" y="10.14" width="1.17" height="1.13"/><rect class="cls-3" x="42.65" y="7.89" width="1.17" height="1.13"/><rect class="cls-8" x="42.65" y="14.65" width="1.17" height="1.13"/><rect class="cls-9" x="42.65" y="12.4" width="1.17" height="1.13"/><rect class="cls-10" x="42.65" y="16.9" width="1.17" height="1.13"/><path class="cls-11" d="M38,19,38,19a1.22,1.22,0,0,0-.9,1.19,1.24,1.24,0,0,0,.48,1,1.6,1.6,0,1,1-2.59,1.26,1.6,1.6,0,0,1,.63-1.27,1.2,1.2,0,0,0,.47-1A1.22,1.22,0,0,0,35.15,19l-.08,0H30.39v-4.4s.09,0,.1,0a2.74,2.74,0,0,0,2.19,1.08,2.78,2.78,0,1,0-2.19-4.47.06.06,0,0,1-.1,0V5.59H15.87V33.5H43.8l0-13.76V19Zm-7.57,1.16h4.4s0,0,0,0a.05.05,0,0,1,0,0,2.74,2.74,0,0,0-1.08,2.19,2.71,2.71,0,0,0,.4,1.44,2.79,2.79,0,0,0-1.43-.39,1.88,1.88,0,0,0-.34,0,2.77,2.77,0,0,0-1.9,1.05l-.05-.06ZM17,6.76H29.22v4.48a1.23,1.23,0,0,0,1.23,1.1,1.26,1.26,0,0,0,1-.47,1.56,1.56,0,0,1,1.26-.63,1.61,1.61,0,1,1-1.27,2.58,1.23,1.23,0,0,0-2.19.63v4.49H24.81v0s0,0,0,0a2.74,2.74,0,0,0,1.08-2.19h0a2.78,2.78,0,0,0-5.55,0h0a2.77,2.77,0,0,0,1.08,2.19,0,0,0,0,0,0,0h0a0,0,0,0,1,0,0H17Zm13.19,20h0a1.22,1.22,0,0,0-.84.74l-.08.14-.06.13v4.53H17V20.15h4.48a.86.86,0,0,0,.17,0h.07l.11-.05,0,0,.14-.07h0l.14-.1.08-.08.06-.07,0,0,.05-.07a.16.16,0,0,0,0-.07l.05-.09,0-.08,0-.09,0-.13h0a1.23,1.23,0,0,0,0-.2h0a1.24,1.24,0,0,0-.48-1,1.58,1.58,0,0,1-.62-1.26,1.6,1.6,0,0,1,3.2,0A1.63,1.63,0,0,1,24.1,18a1.23,1.23,0,0,0-.47,1h0a1.49,1.49,0,0,0,0,.21h0s0,0,0,.06a1,1,0,0,0,0,.12s0,0,0,0h0s0,0,0,.05a.37.37,0,0,0,.05.11l.06.09,0,0,0,.05.07.07a.27.27,0,0,0,.07.08l.08.08.13.06a.67.67,0,0,0,.12.06l.11.05h.06a1.13,1.13,0,0,0,.18,0h4.48v4.53l.06.13.1.18a1.27,1.27,0,0,0,.61.62l.05,0,0,0a1,1,0,0,0,.38.08,1.35,1.35,0,0,0,1-.48,1.54,1.54,0,0,1,.9-.58l.16,0,.15,0a1.61,1.61,0,0,1,0,3.21,1.63,1.63,0,0,1-1.25-.63,1.24,1.24,0,0,0-1-.48A1.26,1.26,0,0,0,30.23,26.77Zm12.4,5.57-12.19,0V28l.05-.07A2.76,2.76,0,0,0,32.69,29h.05a2.78,2.78,0,0,0,2.78-2.78,2.7,2.7,0,0,0-.4-1.43,2.77,2.77,0,0,0,3.13-4.57.09.09,0,0,1,0-.05.05.05,0,0,1,0,0h4.41Z"/></svg>