<svg id="Warstwa_1" data-name="Warstwa 1" xmlns="http://www.w3.org/2000/svg" xmlns:xlink="http://www.w3.org/1999/xlink" viewBox="0 0 60 40"><defs><style>.cls-1{fill:url(#linear-gradient);}.cls-2{fill:url(#linear-gradient-2);}.cls-3{fill:url(#linear-gradient-3);}.cls-4{fill:url(#linear-gradient-4);}.cls-5{fill:url(#linear-gradient-5);}.cls-6{fill:url(#linear-gradient-6);}</style><linearGradient id="linear-gradient" x1="5.79" y1="8.05" x2="35.21" y2="37.47" gradientUnits="userSpaceOnUse"><stop offset="0" stop-color="#4bbcce"/><stop offset="0.25" stop-color="#3da5b9"/><stop offset="0.5" stop-color="#357aac"/><stop offset="0.75" stop-color="#0b4984"/><stop offset="1" stop-color="#1a2a4f"/></linearGradient><linearGradient id="linear-gradient-2" x1="18.34" y1="-4.51" x2="47.76" y2="24.91" xlink:href="#linear-gradient"/><linearGradient id="linear-gradient-3" x1="12.49" y1="1.35" x2="41.91" y2="30.77" xlink:href="#linear-gradient"/><linearGradient id="linear-gradient-4" x1="12.49" y1="1.35" x2="41.91" y2="30.77" xlink:href="#linear-gradient"/><linearGradient id="linear-gradient-5" x1="12.49" y1="1.35" x2="41.91" y2="30.77" xlink:href="#linear-gradient"/><linearGradient id="linear-gradient-6" x1="12.49" y1="1.35" x2="41.91" y2="30.77" xlink:href="#linear-gradient"/></defs><title>Exchange</title><path class="cls-1" d="M38.66,30.61a.64.64,0,0,0-.85-.1,13.27,13.27,0,0,1-2.12,1.17,13.06,13.06,0,0,1-2.26.76,13.49,13.49,0,0,1-7-.23,13.75,13.75,0,0,1-2.21-.92,15.67,15.67,0,0,1-1.35-.82l2.37-.29a.66.66,0,0,0,.41-1.08.66.66,0,0,0-.57-.21l-3.63.44a.65.65,0,0,0-.57.72l.44,3.63a.65.65,0,0,0,1.3-.16l-.22-1.8a13.47,13.47,0,0,0,1.22.72,14,14,0,0,0,2.43,1,14.53,14.53,0,0,0,2.54.54,14,14,0,0,0,2.59.09,14.74,14.74,0,0,0,2.57-.37,14.77,14.77,0,0,0,4.81-2.13.64.64,0,0,0,.17-.9A.18.18,0,0,0,38.66,30.61Z"/><path class="cls-2" d="M21,8.49a.66.66,0,0,0,.86.1A14.15,14.15,0,0,1,24,7.41a12.48,12.48,0,0,1,2.26-.75,12.23,12.23,0,0,1,2.34-.34A13.16,13.16,0,0,1,31,6.39a13.24,13.24,0,0,1,4.54,1.42,12.32,12.32,0,0,1,1.34.82l-2.36.28a.66.66,0,0,0-.57.73.66.66,0,0,0,.73.57l3.62-.44A.65.65,0,0,0,38.82,9l-.44-3.62a.65.65,0,1,0-1.29.16l.22,1.8c-.4-.26-.8-.5-1.22-.72a14,14,0,0,0-2.43-1,14.66,14.66,0,0,0-2.55-.55A14.89,14.89,0,0,0,28.52,5,13.86,13.86,0,0,0,26,5.39a14.55,14.55,0,0,0-2.49.83,14.4,14.4,0,0,0-2.33,1.3.65.65,0,0,0-.17.9A.18.18,0,0,1,21,8.49Z"/><path class="cls-3" d="M41,12.4H18.68a.47.47,0,0,0-.48.48V24.53a.48.48,0,0,0,.48.48H41a.49.49,0,0,0,.48-.48V12.88A.48.48,0,0,0,41,12.4Zm-21.85,5,.08,0a4,4,0,0,0,4-4v0H36.47v0a4,4,0,0,0,4,4l.08,0V20h-.08a4,4,0,0,0-4,4v0H23.22v0a4,4,0,0,0-4-4h-.08Zm21.37-.93h-.08a3,3,0,0,1-3-3v0h3.11ZM22.27,13.36v0a3,3,0,0,1-3,3h-.08V13.36ZM19.16,21l.08,0a3,3,0,0,1,3,3v0H19.16ZM37.42,24v0a3,3,0,0,1,3-3l.08,0V24Z"/><path class="cls-4" d="M29.84,23c1.84,0,3.33-1.91,3.33-4.27s-1.49-4.27-3.33-4.27-3.32,1.92-3.32,4.27S28,23,29.84,23Zm0-7.58c1.3,0,2.36,1.49,2.36,3.31S31.14,22,29.84,22s-2.36-1.48-2.36-3.31S28.54,15.39,29.84,15.39Z"/><path class="cls-5" d="M29.84,19.92a1.22,1.22,0,1,0,0-2.43,1.22,1.22,0,0,0,0,2.43Zm0-1.47a.26.26,0,0,1,.26.25.26.26,0,0,1-.26.26.26.26,0,0,1-.25-.26A.25.25,0,0,1,29.84,18.45Z"/><path class="cls-6" d="M29.84,19.92a1.22,1.22,0,1,0,0-2.43,1.22,1.22,0,0,0,0,2.43Zm0-1.47a.26.26,0,0,1,.26.25.26.26,0,0,1-.26.26.26.26,0,0,1-.25-.26A.25.25,0,0,1,29.84,18.45Z"/></svg>