<svg id="Warstwa_1" data-name="Warstwa 1" xmlns="http://www.w3.org/2000/svg" xmlns:xlink="http://www.w3.org/1999/xlink" viewBox="0 0 60 40"><defs><style>.cls-1{fill:url(#linear-gradient);}.cls-2{fill:url(#linear-gradient-2);}.cls-3{fill:url(#linear-gradient-3);}.cls-4{fill:url(#linear-gradient-4);}.cls-5{fill:url(#linear-gradient-5);}</style><linearGradient id="linear-gradient" x1="6.41" y1="7.42" x2="35.83" y2="36.84" gradientUnits="userSpaceOnUse"><stop offset="0" stop-color="#4bbcce"/><stop offset="0.25" stop-color="#3da5b9"/><stop offset="0.5" stop-color="#357aac"/><stop offset="0.75" stop-color="#0b4984"/><stop offset="1" stop-color="#1a2a4f"/></linearGradient><linearGradient id="linear-gradient-2" x1="5.63" y1="8.21" x2="35.05" y2="37.63" xlink:href="#linear-gradient"/><linearGradient id="linear-gradient-3" x1="12.06" y1="1.77" x2="41.49" y2="31.19" xlink:href="#linear-gradient"/><linearGradient id="linear-gradient-4" x1="13.74" y1="0.09" x2="43.17" y2="29.51" xlink:href="#linear-gradient"/><linearGradient id="linear-gradient-5" x1="18.5" y1="-4.67" x2="47.92" y2="24.75" xlink:href="#linear-gradient"/></defs><title>Make_and_receive payments</title><rect class="cls-1" x="29.25" y="30.26" width="1.19" height="1.19"/><path class="cls-2" d="M19.15,23.51a.62.62,0,0,0-.73.5L18,26.25a14.16,14.16,0,0,1-.71-1.33,13,13,0,0,1-.74-2.18,12.94,12.94,0,0,1-.28-4.52A13.21,13.21,0,0,1,16.74,16a12.55,12.55,0,0,1,.86-2.12,13.29,13.29,0,0,1,1.25-2,.63.63,0,0,0-.05-.83L18.75,11a.63.63,0,0,0-.88.11,14,14,0,0,0-2.33,4.49A14.49,14.49,0,0,0,15,18.07,13.82,13.82,0,0,0,15,20.56,13.51,13.51,0,0,0,15.33,23a14.45,14.45,0,0,0,.82,2.4c.19.41.4.81.62,1.21l-1.71-.32a.63.63,0,1,0-.23,1.23l3.45.64a.63.63,0,0,0,.73-.5l.64-3.45a.63.63,0,0,0-.18-.56A.56.56,0,0,0,19.15,23.51Z"/><path class="cls-3" d="M37.58,7.05a1.79,1.79,0,0,0-1.79-1.78H23.89a1.78,1.78,0,0,0-1.78,1.78V32a1.79,1.79,0,0,0,1.78,1.79h11.9A1.79,1.79,0,0,0,37.58,32V24.33a6.53,6.53,0,0,0,0-9.56Zm-14.28,0a.59.59,0,0,1,.59-.59h11.9a.6.6,0,0,1,.6.59V8.84H23.3ZM36.39,32a.6.6,0,0,1-.6.6H23.89a.59.59,0,0,1-.59-.6V29.66H36.39Zm0-3.57H23.3V10H36.39v3.85a6.56,6.56,0,1,0,0,11.33Zm2.27-8.92A5.55,5.55,0,1,1,33.11,14,5.55,5.55,0,0,1,38.66,19.55Z"/><path class="cls-4" d="M34.45,19.51a3.13,3.13,0,0,0-.58-.36c-.21-.1-.4-.19-.58-.29a2.06,2.06,0,0,1-.45-.28.48.48,0,0,1-.18-.38.55.55,0,0,1,.17-.45.84.84,0,0,1,.51-.13,1.24,1.24,0,0,1,.52.11,2.22,2.22,0,0,1,.48.35l.67-.77a2.53,2.53,0,0,0-.59-.49,2.07,2.07,0,0,0-.77-.27v-.92h-.89v.94a1.62,1.62,0,0,0-1.4,1.7,1.3,1.3,0,0,0,.18.7,1.91,1.91,0,0,0,.45.49,3.5,3.5,0,0,0,.58.36c.21.1.41.21.59.31a2.35,2.35,0,0,1,.45.31.54.54,0,0,1,.18.41.58.58,0,0,1-.18.47.83.83,0,0,1-.57.16,1.68,1.68,0,0,1-.65-.13,3.42,3.42,0,0,1-.66-.4l-.59.91a2.69,2.69,0,0,0,.77.47,3.24,3.24,0,0,0,.85.22v.92h.89v-.95a1.83,1.83,0,0,0,1.07-.63,1.85,1.85,0,0,0,.36-1.14A1.39,1.39,0,0,0,34.9,20,1.84,1.84,0,0,0,34.45,19.51Z"/><path class="cls-5" d="M44.86,11.54l-3.46-.63a.61.61,0,0,0-.72.5L40,14.86a.63.63,0,0,0,.17.56.65.65,0,0,0,.33.17.63.63,0,0,0,.73-.5l.41-2.24a11.31,11.31,0,0,1,.71,1.33,12.75,12.75,0,0,1,.75,2.18,13,13,0,0,1,.34,2.25,13.19,13.19,0,0,1-.53,4.5,12.43,12.43,0,0,1-2.12,4.08.63.63,0,0,0,.05.83l.06.05a.63.63,0,0,0,.88-.11A14.2,14.2,0,0,0,44.66,21a14.84,14.84,0,0,0,.07-2.49,13.76,13.76,0,0,0-.38-2.48,13.49,13.49,0,0,0-.82-2.39,11.5,11.5,0,0,0-.62-1.21l1.72.31a.62.62,0,0,0,.73-.5A.63.63,0,0,0,44.86,11.54Z"/></svg>