<svg id="Warstwa_1" data-name="Warstwa 1" xmlns="http://www.w3.org/2000/svg" xmlns:xlink="http://www.w3.org/1999/xlink" viewBox="0 0 60 40"><defs><style>.cls-1{fill:url(#linear-gradient);}.cls-2{fill:url(#linear-gradient-2);}</style><linearGradient id="linear-gradient" x1="8.19" y1="5.65" x2="37.61" y2="35.07" gradientUnits="userSpaceOnUse"><stop offset="0" stop-color="#4bbcce"/><stop offset="0.25" stop-color="#3da5b9"/><stop offset="0.5" stop-color="#357aac"/><stop offset="0.75" stop-color="#0b4984"/><stop offset="1" stop-color="#1a2a4f"/></linearGradient><linearGradient id="linear-gradient-2" x1="15.94" y1="-2.11" x2="45.37" y2="27.31" xlink:href="#linear-gradient"/></defs><title>Matching Engine</title><path class="cls-1" d="M31.19,17.07a.87.87,0,1,0-1.27,1.18L32,20.52a1.23,1.23,0,0,1,.33.91,1.3,1.3,0,0,1-.43.88L24.07,29a1.28,1.28,0,0,1-1.74-.12l-1.47-1.66a1.24,1.24,0,0,1-.31-.9,1.21,1.21,0,0,1,.41-.85L25,22a.88.88,0,0,0,.08-1.23.87.87,0,0,0-1.23-.07l-4,3.55a3,3,0,0,0-.25,4.2L21,30.07a3,3,0,0,0,2.23,1,3,3,0,0,0,1.94-.71l7.85-6.74a3,3,0,0,0,.24-4.28Z"/><path class="cls-2" d="M40.15,10.72,38.69,9.05a3,3,0,0,0-4.16-.33l-7.91,6.66a3,3,0,0,0-.29,4.28L28.4,22a.9.9,0,0,0,1.23.06.87.87,0,0,0,.06-1.22L27.61,18.5a1.25,1.25,0,0,1-.32-.92,1.23,1.23,0,0,1,.44-.87l7.92-6.66a1.28,1.28,0,0,1,1.74.13l1.45,1.68a1.25,1.25,0,0,1-.12,1.75l-4,3.51a.88.88,0,0,0-.29.6.82.82,0,0,0,.21.63.89.89,0,0,0,1.22.08l4-3.51A3,3,0,0,0,40.15,10.72Z"/></svg>