<svg id="Warstwa_1" data-name="Warstwa 1" xmlns="http://www.w3.org/2000/svg" xmlns:xlink="http://www.w3.org/1999/xlink" viewBox="0 0 60 40"><defs><style>.cls-1{fill:url(#linear-gradient);}.cls-2{fill:url(#linear-gradient-2);}.cls-3{fill:url(#linear-gradient-3);}.cls-4{fill:url(#linear-gradient-4);}.cls-5{fill:url(#linear-gradient-5);}.cls-6{fill:url(#linear-gradient-6);}.cls-7{fill:url(#linear-gradient-7);}.cls-8{fill:url(#linear-gradient-8);}.cls-9{fill:url(#linear-gradient-9);}.cls-10{fill:url(#linear-gradient-10);}</style><linearGradient id="linear-gradient" x1="12.27" y1="1.56" x2="41.7" y2="30.98" gradientUnits="userSpaceOnUse"><stop offset="0" stop-color="#4bbcce"/><stop offset="0.25" stop-color="#3da5b9"/><stop offset="0.5" stop-color="#357aac"/><stop offset="0.75" stop-color="#0b4984"/><stop offset="1" stop-color="#1a2a4f"/></linearGradient><linearGradient id="linear-gradient-2" x1="10.96" y1="2.87" x2="40.38" y2="32.3" xlink:href="#linear-gradient"/><linearGradient id="linear-gradient-3" x1="7.56" y1="6.27" x2="36.98" y2="35.7" xlink:href="#linear-gradient"/><linearGradient id="linear-gradient-4" x1="6.4" y1="7.43" x2="35.83" y2="36.85" xlink:href="#linear-gradient"/><linearGradient id="linear-gradient-5" x1="16.87" y1="-3.03" x2="46.29" y2="26.39" xlink:href="#linear-gradient"/><linearGradient id="linear-gradient-6" x1="6.67" y1="7.17" x2="36.09" y2="36.59" xlink:href="#linear-gradient"/><linearGradient id="linear-gradient-7" x1="4.77" y1="9.07" x2="34.19" y2="38.49" xlink:href="#linear-gradient"/><linearGradient id="linear-gradient-8" x1="5.66" y1="8.17" x2="35.08" y2="37.6" xlink:href="#linear-gradient"/><linearGradient id="linear-gradient-9" x1="6.55" y1="7.28" x2="35.97" y2="36.7" xlink:href="#linear-gradient"/><linearGradient id="linear-gradient-10" x1="17.77" y1="-3.94" x2="47.19" y2="25.49" xlink:href="#linear-gradient"/></defs><title>Merchant Platform</title><polygon class="cls-1" points="23.89 17.76 25.08 17.76 25.08 15.43 27.77 15.43 27.04 16.15 27.88 16.99 30.09 14.81 27.88 12.58 27.04 13.41 27.85 14.24 23.89 14.24 23.89 17.76"/><polygon class="cls-2" points="30.62 22.7 28.41 24.88 30.61 27.12 31.46 26.28 30.65 25.45 34.61 25.45 34.61 21.93 33.42 21.93 33.42 24.26 30.73 24.26 31.45 23.55 30.62 22.7"/><path class="cls-3" d="M36.4,28.49H23.29V26.7H22.1v5.36a1.79,1.79,0,0,0,1.79,1.79H35.8a1.79,1.79,0,0,0,1.79-1.79V24.31H36.4Zm0,3.57a.6.6,0,0,1-.6.6H23.89a.6.6,0,0,1-.6-.6V29.68H36.4Z"/><rect class="cls-4" x="29.25" y="30.27" width="1.19" height="1.19"/><path class="cls-5" d="M38.18,10.61a5.68,5.68,0,0,0-.59,0V7A1.79,1.79,0,0,0,35.8,5.25H23.89A1.79,1.79,0,0,0,22.1,7v6.55h1.19V10H36.4v.87a5.94,5.94,0,1,0,1.78-.28ZM23.29,8.82V7a.6.6,0,0,1,.6-.6H35.8a.6.6,0,0,1,.6.6V8.82ZM38.18,21.34A4.77,4.77,0,1,1,43,16.57,4.77,4.77,0,0,1,38.18,21.34Z"/><path class="cls-6" d="M26.27,24.31V21.93h.59V19H21.5V14.78H20.31V19H15.54v3h.6v2.38a1.79,1.79,0,0,0,1.79,1.79h6.55A1.79,1.79,0,0,0,26.27,24.31Zm-9.53-4.17h8.93v.6H16.74Zm.59,4.17V21.93h7.75v2.38a.6.6,0,0,1-.6.6H17.93A.6.6,0,0,1,17.33,24.31Z"/><rect class="cls-7" x="18.52" y="22.53" width="1.19" height="1.79"/><rect class="cls-8" x="20.31" y="22.53" width="1.19" height="1.79"/><rect class="cls-9" x="22.1" y="22.53" width="1.19" height="1.79"/><path class="cls-10" d="M39.52,16.53a3.13,3.13,0,0,0-.58-.36l-.58-.28a2.93,2.93,0,0,1-.45-.29.47.47,0,0,1-.18-.37.55.55,0,0,1,.17-.45.84.84,0,0,1,.51-.14,1.24,1.24,0,0,1,.52.11,2.22,2.22,0,0,1,.48.35l.68-.77a2.8,2.8,0,0,0-.6-.49,2.27,2.27,0,0,0-.77-.27v-.92h-.89v.94a1.74,1.74,0,0,0-1,.58,1.66,1.66,0,0,0-.37,1.12,1.2,1.2,0,0,0,.18.7,1.71,1.71,0,0,0,.44.49,3.92,3.92,0,0,0,.59.37l.58.3a2.35,2.35,0,0,1,.45.31.54.54,0,0,1,.18.41.62.62,0,0,1-.18.48.88.88,0,0,1-.57.15,1.59,1.59,0,0,1-.64-.13,3,3,0,0,1-.67-.4l-.58.91a2.64,2.64,0,0,0,.76.47,3.24,3.24,0,0,0,.85.22v.92h.89v-.95a1.8,1.8,0,0,0,1.07-.63,1.82,1.82,0,0,0,.36-1.13A1.4,1.4,0,0,0,40,17,1.84,1.84,0,0,0,39.52,16.53Z"/></svg>