<svg id="Warstwa_1" data-name="Warstwa 1" xmlns="http://www.w3.org/2000/svg" xmlns:xlink="http://www.w3.org/1999/xlink" viewBox="0 0 60 40"><defs><style>.cls-1{fill-rule:evenodd;fill:url(#linear-gradient);}</style><linearGradient id="linear-gradient" x1="11.08" y1="2.75" x2="40.5" y2="32.17" gradientUnits="userSpaceOnUse"><stop offset="0" stop-color="#4bbcce"/><stop offset="0.25" stop-color="#3da5b9"/><stop offset="0.5" stop-color="#357aac"/><stop offset="0.75" stop-color="#0b4984"/><stop offset="1" stop-color="#1a2a4f"/></linearGradient></defs><title>Multi Asset Wallet</title><path class="cls-1" d="M44.22,14.86v9.37H29.7a2,2,0,1,1,0-1.2H43v-7H29.7a2,2,0,1,1,0-1.19H44.22ZM15.47,8.35H40.28v5.32h-1.2V9.55H16.67v20H39.08V25.43h1.2v5.32H15.47V8.35Zm23.64,9.16a2,2,0,1,1-2,2.63H25.74a2,2,0,1,1,0-1.19H37.16a2,2,0,0,1,2-1.44Zm0,1.19a.85.85,0,1,1-.85.85.86.86,0,0,1,.85-.85Zm-15.32,0a.85.85,0,1,1-.85.85.85.85,0,0,1,.85-.85Zm3.95,5.79a.85.85,0,1,0-.84-.85.85.85,0,0,0,.84.85Zm0-9.88a.85.85,0,1,1-.84.85.85.85,0,0,1,.84-.85Z"/></svg>