<svg id="Warstwa_1" data-name="Warstwa 1" xmlns="http://www.w3.org/2000/svg" xmlns:xlink="http://www.w3.org/1999/xlink" viewBox="0 0 60 40"><defs><style>.cls-1{fill:url(#linear-gradient);}.cls-2{fill:url(#linear-gradient-2);}.cls-3{fill:url(#linear-gradient-3);}</style><linearGradient id="linear-gradient" x1="9.95" y1="3.88" x2="39.37" y2="33.3" gradientUnits="userSpaceOnUse"><stop offset="0" stop-color="#4bbcce"/><stop offset="0.25" stop-color="#3da5b9"/><stop offset="0.5" stop-color="#357aac"/><stop offset="0.75" stop-color="#0b4984"/><stop offset="1" stop-color="#1a2a4f"/></linearGradient><linearGradient id="linear-gradient-2" x1="18.22" y1="-4.38" x2="47.64" y2="25.04" xlink:href="#linear-gradient"/><linearGradient id="linear-gradient-3" x1="18.18" y1="-4.34" x2="47.6" y2="25.08" xlink:href="#linear-gradient"/></defs><title>No fees</title><path class="cls-1" d="M39.93,17.53a10.35,10.35,0,0,0-2.45-2c-1.35-.76-4.9-1.57-7.28.74l-.86.86-.69-.68c-2.82-2.74-6.7-1.73-9.08.68s-3.36,6-.53,8.83l1.36,1.36-.31.31a1.93,1.93,0,0,0,0,2.71l.17.16a1.93,1.93,0,0,0,1.58.55,1.91,1.91,0,0,0,.55,1.51l.16.16a1.94,1.94,0,0,0,1.71.52,1.92,1.92,0,0,0,.56,1.4l.16.16a2,2,0,0,0,1.65.54v.05a1.86,1.86,0,0,0,.56,1.35l.16.17a1.92,1.92,0,0,0,2.71,0l1.42-1.42a2,2,0,0,0,.44-.7,1.82,1.82,0,0,0,1.29.53,2.2,2.2,0,0,0,1.51-.63,1.9,1.9,0,0,0,.59-1.28,2,2,0,0,0,.34,0,2.26,2.26,0,0,0,1.55-.64,2,2,0,0,0,.61-1.45h.1a1.83,1.83,0,0,0,1.26-.53A2.1,2.1,0,0,0,39.4,28l1.31-1.32C43.49,23.93,42.33,20.1,39.93,17.53ZM22.26,29.83a1,1,0,0,1-1.3,0l-.16-.16a.92.92,0,0,1,0-1.3l2.11-2.11a.88.88,0,0,1,.65-.27.91.91,0,0,1,.65.27l.16.16a.94.94,0,0,1,0,1.3ZM24.56,32a.94.94,0,0,1-1.3,0l-.17-.16a.94.94,0,0,1,0-1.3l3.36-3.36A1,1,0,0,1,27.1,27a.91.91,0,0,1,.65.27l.17.16a.94.94,0,0,1,.26.65.91.91,0,0,1-.26.65ZM27,34.13a1,1,0,0,1-1.3,0L25.52,34a.92.92,0,0,1,0-1.29l2.31-2.31a.91.91,0,0,1,.65-.27.93.93,0,0,1,.65.27l.16.16a1,1,0,0,1,.27.65.91.91,0,0,1-.27.65Zm3.78.69-1.41,1.41a.94.94,0,0,1-1.3,0l-.16-.16a.88.88,0,0,1-.27-.65.91.91,0,0,1,.26-.65l1.42-1.41a.88.88,0,0,1,.65-.27.87.87,0,0,1,.32.06l.06.09.65.65A.92.92,0,0,1,30.77,34.82Zm7.94-7.52-5.32-5.57a.5.5,0,1,0-.72.68l5.93,6.21a1.1,1.1,0,0,1-.12,1.52c-.23.22-.7.49-1.3-.13l-.25-.26L34.2,26.94a.5.5,0,1,0-.72.69l.2.2h0l2.77,2.87h0a.91.91,0,0,1,0,1.41,1.06,1.06,0,0,1-1.48.09L32,29.08a.5.5,0,0,0-.71.69l2.57,2.65a.44.44,0,0,0,.11.2c.65.69.27,1.2.07,1.39a1,1,0,0,1-1.44.07l-.75-.75a1.78,1.78,0,0,0-.35-.51l-.17-.17a1.91,1.91,0,0,0-1-.53,1.82,1.82,0,0,0,.25-.95A1.9,1.9,0,0,0,30,29.82l-.16-.16a1.85,1.85,0,0,0-1-.53A1.93,1.93,0,0,0,29.18,28a1.9,1.9,0,0,0-.56-1.36l-.16-.16a2,2,0,0,0-2.71,0l-.16.16a1.78,1.78,0,0,0-.52-1l-.16-.17a2,2,0,0,0-2.71,0l-1.09,1.09-1.36-1.36c-2.35-2.34-1.38-5.49.53-7.42s5.21-3.06,7.67-.67l.68.68-3,3a1.18,1.18,0,0,0-.06,1.78,3.27,3.27,0,0,0,4.24-.2l1.14-1.13c.55-.5,1.15-.35,2.15,0a4.27,4.27,0,0,0,4.37-.5.48.48,0,0,0,.08-.69.5.5,0,0,0-.7-.09c-1.25,1-2.32.67-3.46.32s-2.12-.64-3.12.28l-1.16,1.14a2.31,2.31,0,0,1-2.83.21c-.09-.09-.16-.16.05-.37L30.9,17c2.14-2.08,5.4-1,6.09-.58a9,9,0,0,1,2.22,1.78c1.91,2.05,3.27,5.33.8,7.79Z"/><path class="cls-2" d="M29.78,9a1.55,1.55,0,0,1-.56-.11,2.8,2.8,0,0,1-.58-.35l-.52.79a2.15,2.15,0,0,0,.67.41,2.83,2.83,0,0,0,.74.2v.8h.78V9.92a1.56,1.56,0,0,0,.94-.55,1.6,1.6,0,0,0,.31-1,1.3,1.3,0,0,0-.15-.65,1.68,1.68,0,0,0-.4-.44A2.17,2.17,0,0,0,30.5,7L30,6.73a3.31,3.31,0,0,1-.39-.25.43.43,0,0,1-.15-.33.47.47,0,0,1,.15-.39A.7.7,0,0,1,30,5.64a1,1,0,0,1,.46.1,1.47,1.47,0,0,1,.41.3l.6-.68A2.72,2.72,0,0,0,31,4.94a1.72,1.72,0,0,0-.67-.23V3.9h-.78v.82a1.57,1.57,0,0,0-.89.5,1.47,1.47,0,0,0-.32,1,1.17,1.17,0,0,0,.15.61,2,2,0,0,0,.39.43,3.36,3.36,0,0,0,.51.32,4.85,4.85,0,0,1,.51.26,2.16,2.16,0,0,1,.4.28.45.45,0,0,1,.15.35.54.54,0,0,1-.15.42A.77.77,0,0,1,29.78,9Z"/><path class="cls-3" d="M29.84,13.05a5.73,5.73,0,1,0-5.72-5.73A5.74,5.74,0,0,0,29.84,13.05Zm0-10.57A4.85,4.85,0,1,1,25,7.32,4.85,4.85,0,0,1,29.84,2.48Z"/></svg>