<svg id="Warstwa_1" data-name="Warstwa 1" xmlns="http://www.w3.org/2000/svg" xmlns:xlink="http://www.w3.org/1999/xlink" viewBox="0 0 60 40"><defs><style>.cls-1{fill:url(#linear-gradient);}.cls-2{fill:url(#linear-gradient-2);}.cls-3{fill:url(#linear-gradient-3);}.cls-4{fill:url(#linear-gradient-4);}.cls-5{fill:url(#linear-gradient-5);}.cls-6{fill:url(#linear-gradient-6);}.cls-7{fill:url(#linear-gradient-7);}.cls-8{fill:url(#linear-gradient-8);}.cls-9{fill:url(#linear-gradient-9);}.cls-10{fill:url(#linear-gradient-10);}.cls-11{fill:url(#linear-gradient-11);}</style><linearGradient id="linear-gradient" x1="12.08" y1="1.75" x2="41.51" y2="31.17" gradientUnits="userSpaceOnUse"><stop offset="0" stop-color="#4bbcce"/><stop offset="0.25" stop-color="#3da5b9"/><stop offset="0.5" stop-color="#357aac"/><stop offset="0.75" stop-color="#0b4984"/><stop offset="1" stop-color="#1a2a4f"/></linearGradient><linearGradient id="linear-gradient-2" x1="7.01" y1="6.82" x2="36.43" y2="36.24" xlink:href="#linear-gradient"/><linearGradient id="linear-gradient-3" x1="17.16" y1="-3.33" x2="46.58" y2="26.1" xlink:href="#linear-gradient"/><linearGradient id="linear-gradient-4" x1="12.08" y1="1.75" x2="41.51" y2="31.17" xlink:href="#linear-gradient"/><linearGradient id="linear-gradient-5" x1="7.01" y1="6.82" x2="36.43" y2="36.24" xlink:href="#linear-gradient"/><linearGradient id="linear-gradient-6" x1="17.16" y1="-3.33" x2="46.58" y2="26.1" xlink:href="#linear-gradient"/><linearGradient id="linear-gradient-7" x1="12.08" y1="1.75" x2="41.51" y2="31.17" xlink:href="#linear-gradient"/><linearGradient id="linear-gradient-8" x1="12.22" y1="1.61" x2="41.64" y2="31.04" xlink:href="#linear-gradient"/><linearGradient id="linear-gradient-9" x1="22.56" y1="-8.73" x2="51.99" y2="20.69" xlink:href="#linear-gradient"/><linearGradient id="linear-gradient-10" x1="11.91" y1="1.93" x2="41.33" y2="31.35" xlink:href="#linear-gradient"/><linearGradient id="linear-gradient-11" x1="1.56" y1="12.27" x2="30.99" y2="41.69" xlink:href="#linear-gradient"/></defs><title>Scan</title><path class="cls-1" d="M20.62,18.84h8.56V10.28H20.62Zm1.05-7.5h6.45v6.45H21.67Z"/><path class="cls-2" d="M20.62,29h8.56V20.43H20.62Zm1.05-7.51h6.45v6.46H21.67Z"/><path class="cls-3" d="M39.33,10.28H30.76v8.56h8.57Zm-1.06,7.51H31.82V11.34h6.45Z"/><rect class="cls-4" x="22.84" y="12.51" width="4.11" height="4.11"/><rect class="cls-5" x="22.84" y="22.65" width="4.11" height="4.11"/><rect class="cls-6" x="32.99" y="12.51" width="4.11" height="4.11"/><rect class="cls-7" x="32.99" y="22.65" width="4.11" height="4.11"/><polygon class="cls-8" points="18.64 8.04 24.19 8.04 24.19 6.98 17.58 6.98 17.58 13.58 18.64 13.58 18.64 8.04"/><polygon class="cls-9" points="35.5 6.98 35.5 8.04 41.05 8.04 41.05 13.58 42.1 13.58 42.1 6.98 35.5 6.98"/><polygon class="cls-10" points="41.05 31.06 35.5 31.06 35.5 32.12 42.1 32.12 42.1 25.52 41.05 25.52 41.05 31.06"/><polygon class="cls-11" points="18.64 25.52 17.58 25.52 17.58 32.12 24.19 32.12 24.19 31.06 18.64 31.06 18.64 25.52"/></svg>