<svg id="Warstwa_1" data-name="Warstwa 1" xmlns="http://www.w3.org/2000/svg" xmlns:xlink="http://www.w3.org/1999/xlink" viewBox="0 0 60 40"><defs><style>.cls-1{fill:url(#linear-gradient);}</style><linearGradient id="linear-gradient" x1="11.13" y1="2.7" x2="40.55" y2="32.13" gradientUnits="userSpaceOnUse"><stop offset="0" stop-color="#4bbcce"/><stop offset="0.25" stop-color="#3da5b9"/><stop offset="0.5" stop-color="#357aac"/><stop offset="0.75" stop-color="#0b4984"/><stop offset="1" stop-color="#1a2a4f"/></linearGradient></defs><title>Token economics</title><path class="cls-1" d="M15.48,24.77h3V32.5h-3Zm8-8h3V32.5h-3Zm8.05,7.17h3V32.5h-3Zm8-3.73h3V32.5h-3ZM14.2,32.56H13.11a.64.64,0,1,0,0,1.27H45a.64.64,0,1,0,0-1.27H43.87v-13a.63.63,0,0,0-.64-.63H39a.63.63,0,0,0-.64.63v13H35.83V23.27a.64.64,0,0,0-.64-.63H30.93a.64.64,0,0,0-.64.63v9.29H27.78V16.1a.64.64,0,0,0-.64-.64H22.88a.64.64,0,0,0-.63.64V32.56H19.73V24.13a.63.63,0,0,0-.63-.63H14.84a.64.64,0,0,0-.64.63Zm27-21.66a.41.41,0,0,1-.15-.32.48.48,0,0,1,.15-.4.7.7,0,0,1,.44-.12,1,1,0,0,1,.46.1,1.82,1.82,0,0,1,.42.3l.6-.67a2.44,2.44,0,0,0-.53-.43,1.62,1.62,0,0,0-.67-.23V8.31h-.78v.83a1.53,1.53,0,0,0-.9.51,1.47,1.47,0,0,0-.33,1,1.07,1.07,0,0,0,.16.61,1.65,1.65,0,0,0,.39.44A3.36,3.36,0,0,0,41,12c.19.09.36.17.52.26a2.06,2.06,0,0,1,.39.28.5.5,0,0,1,.16.36.53.53,0,0,1-.16.41.68.68,0,0,1-.49.14,1.39,1.39,0,0,1-.57-.12,2.34,2.34,0,0,1-.59-.35l-.51.8a2.38,2.38,0,0,0,.67.42,2.76,2.76,0,0,0,.75.19v.81h.78v-.84a1.54,1.54,0,0,0,.94-.55,1.61,1.61,0,0,0,.31-1,1.26,1.26,0,0,0-.15-.64,1.58,1.58,0,0,0-.4-.45,2.67,2.67,0,0,0-.51-.31l-.51-.25a2.13,2.13,0,0,1-.4-.26m5.11.86a4.87,4.87,0,1,1-4.86-4.87,4.87,4.87,0,0,1,4.86,4.87M35.38,15.63a2.33,2.33,0,1,1-2.33-2.35,2.35,2.35,0,0,1,2.33,2.35m-8-7.27A2.33,2.33,0,1,1,25,6a2.34,2.34,0,0,1,2.33,2.35m-8.08,8.18A2.33,2.33,0,1,1,17,14.18a2.34,2.34,0,0,1,2.33,2.36m27.93-4.78A5.75,5.75,0,1,0,36.06,13.7l-.49.16a3.11,3.11,0,0,0-2.51-1.29,3.15,3.15,0,0,0-1.83.6L27.62,10a3.05,3.05,0,0,0,.49-1.66,3.1,3.1,0,1,0-5.68,1.7l-3.86,3.83a3,3,0,0,0-1.6-.45,3.1,3.1,0,1,0,2.53,1.32L23.33,11a3.07,3.07,0,0,0,3.39,0l3.66,3.19a3.09,3.09,0,1,0,5.77,1.55,3.49,3.49,0,0,0-.06-.65l.49-.26a5.73,5.73,0,0,0,10.63-3"/></svg>