<svg id="Warstwa_1" data-name="Warstwa 1" xmlns="http://www.w3.org/2000/svg" xmlns:xlink="http://www.w3.org/1999/xlink" viewBox="0 0 60 40"><defs><style>.cls-1{fill:url(#linear-gradient);}.cls-2{fill:url(#linear-gradient-2);}</style><linearGradient id="linear-gradient" x1="12.06" y1="1.77" x2="41.49" y2="31.19" gradientUnits="userSpaceOnUse"><stop offset="0" stop-color="#4bbcce"/><stop offset="0.25" stop-color="#3da5b9"/><stop offset="0.5" stop-color="#357aac"/><stop offset="0.75" stop-color="#0b4984"/><stop offset="1" stop-color="#1a2a4f"/></linearGradient><linearGradient id="linear-gradient-2" x1="11.47" y1="2.37" x2="40.89" y2="31.79" xlink:href="#linear-gradient"/></defs><title>Video_Explainer</title><path class="cls-1" d="M40.61,10.25H19.07a3.1,3.1,0,0,0-3.1,3.1v12.4a3.1,3.1,0,0,0,3.1,3.1H40.61a3.1,3.1,0,0,0,3.1-3.1V13.35A3.1,3.1,0,0,0,40.61,10.25Zm1.81,15.5a1.81,1.81,0,0,1-1.81,1.8H19.07a1.81,1.81,0,0,1-1.8-1.8V13.35a1.81,1.81,0,0,1,1.8-1.8H40.61a1.81,1.81,0,0,1,1.81,1.8Z"/><path class="cls-2" d="M32.24,19l-4.13-2.38a.65.65,0,0,0-.66,0,.66.66,0,0,0-.34.57v4.77a.67.67,0,0,0,.34.58.63.63,0,0,0,.33.09.66.66,0,0,0,.33-.09l4.13-2.39a.63.63,0,0,0,.33-.57A.66.66,0,0,0,32.24,19Z"/></svg>