<svg id="Warstwa_1" data-name="Warstwa 1" xmlns="http://www.w3.org/2000/svg" xmlns:xlink="http://www.w3.org/1999/xlink" viewBox="0 0 60 40"><defs><style>.cls-1,.cls-2,.cls-3,.cls-4,.cls-5{fill-rule:evenodd;}.cls-1{fill:url(#linear-gradient);}.cls-2{fill:url(#linear-gradient-2);}.cls-3{fill:url(#linear-gradient-3);}.cls-4{fill:url(#linear-gradient-4);}.cls-5{fill:url(#linear-gradient-5);}.cls-6{fill:url(#linear-gradient-6);}.cls-7{fill:url(#linear-gradient-7);}.cls-8{fill:url(#linear-gradient-8);}</style><linearGradient id="linear-gradient" x1="7.58" y1="6.26" x2="37" y2="35.68" gradientUnits="userSpaceOnUse"><stop offset="0" stop-color="#4bbcce"/><stop offset="0.25" stop-color="#3da5b9"/><stop offset="0.5" stop-color="#357aac"/><stop offset="0.75" stop-color="#0b4984"/><stop offset="1" stop-color="#1a2a4f"/></linearGradient><linearGradient id="linear-gradient-2" x1="7.52" y1="6.31" x2="36.94" y2="35.74" xlink:href="#linear-gradient"/><linearGradient id="linear-gradient-3" x1="10.95" y1="2.89" x2="40.37" y2="32.31" xlink:href="#linear-gradient"/><linearGradient id="linear-gradient-4" x1="8.47" y1="5.36" x2="37.89" y2="34.78" xlink:href="#linear-gradient"/><linearGradient id="linear-gradient-5" x1="12.06" y1="1.77" x2="41.49" y2="31.19" xlink:href="#linear-gradient"/><linearGradient id="linear-gradient-6" x1="15.25" y1="-1.41" x2="44.67" y2="28.01" xlink:href="#linear-gradient"/><linearGradient id="linear-gradient-7" x1="13.98" y1="-0.14" x2="43.4" y2="29.28" xlink:href="#linear-gradient"/><linearGradient id="linear-gradient-8" x1="12.71" y1="1.13" x2="42.13" y2="30.55" xlink:href="#linear-gradient"/></defs><title>Whitepaper</title><path class="cls-1" d="M27.48,26.87a.71.71,0,1,0,.71-.71A.71.71,0,0,0,27.48,26.87Z"/><path class="cls-2" d="M24.06,23.56a.71.71,0,1,0,.71-.71A.71.71,0,0,0,24.06,23.56Z"/><path class="cls-3" d="M30.91,23.56a.71.71,0,1,0,.71-.71A.71.71,0,0,0,30.91,23.56Z"/><path class="cls-4" d="M32.12,21.93a1.71,1.71,0,1,1-2.21,1.63,1.72,1.72,0,0,1,1.21-1.64V19.4H28.69v5.84a1.71,1.71,0,1,1-1,0V19.4H25.27v2.52a1.71,1.71,0,1,1-1,0V19.4H22.11V30.77H34.28V19.4H32.12Z"/><path class="cls-5" d="M22.11,5v3.3h-3.3V34.06H37.58V30.77h3.3V5Zm14.47,28H19.81V9.33H36.58Zm3.29-3.3H37.58V8.33H23.11V6H39.87Z"/><rect class="cls-6" x="22.1" y="11.03" width="12.18" height="1"/><rect class="cls-7" x="22.1" y="13.57" width="12.18" height="1"/><rect class="cls-8" x="22.1" y="16.11" width="12.18" height="1"/></svg>