<svg id="Warstwa_1" data-name="Warstwa 1" xmlns="http://www.w3.org/2000/svg" xmlns:xlink="http://www.w3.org/1999/xlink" viewBox="0 0 121.66 23.25"><defs><style>.cls-1{fill:url(#linear-gradient);}.cls-2{fill:url(#linear-gradient-2);}.cls-3{fill:url(#linear-gradient-3);}.cls-4{fill:url(#linear-gradient-6);}.cls-5{fill:url(#linear-gradient-11);}</style><linearGradient id="linear-gradient" x1="23.16" y1="3.87" x2="-0.17" y2="3.87" gradientUnits="userSpaceOnUse"><stop offset="0" stop-color="#4bbcce"/><stop offset="0.25" stop-color="#3da5b9"/><stop offset="0.5" stop-color="#357aac"/><stop offset="0.75" stop-color="#0b4984"/><stop offset="1" stop-color="#1a2a4f"/></linearGradient><linearGradient id="linear-gradient-2" x1="23.16" y1="11.62" x2="-0.17" y2="11.62" xlink:href="#linear-gradient"/><linearGradient id="linear-gradient-3" x1="23.16" y1="19.37" x2="-0.17" y2="19.37" xlink:href="#linear-gradient"/><linearGradient id="linear-gradient-6" x1="36" y1="19.64" x2="122.01" y2="19.64" xlink:href="#linear-gradient"/><linearGradient id="linear-gradient-11" x1="29.66" y1="5.93" x2="115.67" y2="5.93" xlink:href="#linear-gradient"/></defs><title>XCARD_logo_v5</title><rect class="cls-1" width="7.75" height="7.75"/><rect class="cls-2" x="7.75" y="7.75" width="7.75" height="7.75"/><rect class="cls-3" y="15.5" width="7.75" height="7.75"/><rect class="cls-1" x="15.5" width="7.75" height="7.75"/><rect class="cls-3" x="15.5" y="15.5" width="7.75" height="7.75"/><path class="cls-4" d="M62.84,23.6a3.78,3.78,0,0,1-1.79.41,4,4,0,0,1-1.63-.33,3.69,3.69,0,0,1-1.27-.89,4.14,4.14,0,0,1-.84-1.39,5.08,5.08,0,0,1-.3-1.78,5,5,0,0,1,.3-1.75,4.21,4.21,0,0,1,.85-1.38,3.85,3.85,0,0,1,1.29-.92,4.16,4.16,0,0,1,3.27,0,2.8,2.8,0,0,1,1.26,1l2.34-2.35A5.69,5.69,0,0,0,64,12.64a8.42,8.42,0,0,0-3-.54,8.58,8.58,0,0,0-3,.53,7.19,7.19,0,0,0-2.45,1.5,6.89,6.89,0,0,0-1.64,2.38,7.8,7.8,0,0,0-.59,3.11,7.85,7.85,0,0,0,.58,3.07,7.07,7.07,0,0,0,4,3.95,8.34,8.34,0,0,0,3,.54,7.68,7.68,0,0,0,3.2-.63,7,7,0,0,0,2.33-1.73l-2.4-2.27A3.39,3.39,0,0,1,62.84,23.6Z" transform="translate(-6.34 -8.01)"/><polygon class="cls-4" points="42.24 4.48 38.24 4.48 35.63 8.92 32.98 4.48 28.84 4.48 33.42 11.23 28.43 18.79 32.53 18.79 35.53 13.73 38.64 18.79 42.88 18.79 37.74 11.23 42.24 4.48"/><path class="cls-4" d="M73.26,12.49l1,3.93L70,26.8h3.74l1-2.81h5.51l1.1,2.81h3.82L79.25,12.49Zm2.46,8.73,1.81-4.91,1.76,4.91Z" transform="translate(-6.34 -8.01)"/><path class="cls-4" d="M118.43,14a7.56,7.56,0,0,0-2.61-1.17,12.43,12.43,0,0,0-3-.35h-6.17l1,3.94V26.8H113a10.16,10.16,0,0,0,2.89-.42,7.36,7.36,0,0,0,2.56-1.29,6.49,6.49,0,0,0,1.83-2.24,7.15,7.15,0,0,0,.7-3.25,7.33,7.33,0,0,0-.71-3.39A6,6,0,0,0,118.43,14ZM117,21.6a3.47,3.47,0,0,1-1,1.3,4.13,4.13,0,0,1-1.5.69,7,7,0,0,1-1.78.22h-1.63V15.44h1.71a7,7,0,0,1,1.72.2,4,4,0,0,1,1.48.68,3.3,3.3,0,0,1,1,1.27,4.56,4.56,0,0,1,.39,2A4.57,4.57,0,0,1,117,21.6Z" transform="translate(-6.34 -8.01)"/><path class="cls-4" d="M100.45,19.26a3.85,3.85,0,0,0,.79-2.45,4.16,4.16,0,0,0-.47-2.06,3.75,3.75,0,0,0-1.23-1.33,5.13,5.13,0,0,0-1.75-.72,9.5,9.5,0,0,0-2-.21H89.35l1,3.93V26.8h3.35V21.12h1.17L98,26.8h4l-3.72-6.13A4.21,4.21,0,0,0,100.45,19.26Zm-2.84-1.5a1.6,1.6,0,0,1-.6.53,2.84,2.84,0,0,1-.81.25,5.07,5.07,0,0,1-.86.07H93.7V15.28h1.84a5.7,5.7,0,0,1,.8.06,2.21,2.21,0,0,1,.74.23,1.41,1.41,0,0,1,.55.48,1.47,1.47,0,0,1,.21.82A1.59,1.59,0,0,1,97.61,17.76Z" transform="translate(-6.34 -8.01)"/><polygon class="cls-5" points="115.36 4.75 116.32 4.75 116.32 7.37 116.62 7.37 116.62 4.75 117.58 4.75 117.58 4.49 115.36 4.49 115.36 4.75"/><polygon class="cls-5" points="121.22 4.49 120.25 6.87 120.25 6.87 119.27 4.49 118.83 4.49 118.83 7.37 119.12 7.37 119.12 4.87 119.13 4.87 120.17 7.37 120.32 7.37 121.36 4.87 121.37 4.87 121.37 7.37 121.67 7.37 121.67 4.49 121.22 4.49"/></svg>