<svg id="Warstwa_1" data-name="Warstwa 1" xmlns="http://www.w3.org/2000/svg" xmlns:xlink="http://www.w3.org/1999/xlink" viewBox="0 0 60 40"><defs><style>.cls-1{fill:url(#linear-gradient);}.cls-2{fill:url(#linear-gradient-2);}.cls-3{fill:url(#linear-gradient-3);}.cls-4{fill:url(#linear-gradient-4);}.cls-5{fill:url(#linear-gradient-5);}.cls-6{fill:url(#linear-gradient-6);}.cls-7{fill:url(#linear-gradient-7);}</style><linearGradient id="linear-gradient" x1="9.83" y1="17.42" x2="34.33" y2="41.92" gradientUnits="userSpaceOnUse"><stop offset="0" stop-color="#4bbcce"/><stop offset="0.25" stop-color="#3da5b9"/><stop offset="0.5" stop-color="#357aac"/><stop offset="0.75" stop-color="#0b4984"/><stop offset="1" stop-color="#1a2a4f"/></linearGradient><linearGradient id="linear-gradient-2" x1="11.2" y1="16.05" x2="35.7" y2="40.55" xlink:href="#linear-gradient"/><linearGradient id="linear-gradient-3" x1="16.62" y1="10.63" x2="41.12" y2="35.13" xlink:href="#linear-gradient"/><linearGradient id="linear-gradient-4" x1="24.37" y1="2.88" x2="48.87" y2="27.39" xlink:href="#linear-gradient"/><linearGradient id="linear-gradient-5" x1="18.96" y1="8.29" x2="43.46" y2="32.8" xlink:href="#linear-gradient"/><linearGradient id="linear-gradient-6" x1="18.9" y1="8.35" x2="43.4" y2="32.85" xlink:href="#linear-gradient"/><linearGradient id="linear-gradient-7" x1="20.79" y1="6.46" x2="45.29" y2="30.96" xlink:href="#linear-gradient"/></defs><title>Best execution rates</title><path class="cls-1" d="M29.56,30.32h-15a.66.66,0,0,1,0-1.32h15a.66.66,0,0,1,0,1.32Z"/><path class="cls-2" d="M20.63,30.13a.65.65,0,0,1-.66-.65V17.1H16.24V29.48a.66.66,0,0,1-1.32,0v-13a.66.66,0,0,1,.66-.65h5a.65.65,0,0,1,.65.65v13A.65.65,0,0,1,20.63,30.13Z"/><path class="cls-3" d="M28.64,30.13a.66.66,0,0,1-.66-.65v-18H24.25v18a.66.66,0,0,1-1.31,0V10.79a.65.65,0,0,1,.66-.65h5a.65.65,0,0,1,.66.65V29.48A.65.65,0,0,1,28.64,30.13Z"/><path class="cls-4" d="M31.61,21.33a.67.67,0,0,1-.66-.66v-16A.66.66,0,0,1,31.61,4h5a.66.66,0,0,1,.66.66V18.21a.66.66,0,1,1-1.32,0V5.29H32.27V20.67A.66.66,0,0,1,31.61,21.33Z"/><path class="cls-5" d="M37.16,35.12a8.62,8.62,0,1,1,8.62-8.62A8.63,8.63,0,0,1,37.16,35.12Zm0-15.92a7.3,7.3,0,1,0,7.3,7.3A7.31,7.31,0,0,0,37.16,19.2Z"/><path class="cls-6" d="M33.62,30.32a.62.62,0,0,1-.47-.21.65.65,0,0,1,0-.93c.27-.25,1-1,1.85-1.93,3.47-3.66,4.47-4.65,4.91-4.83a.66.66,0,0,1,.53,1.2c-.48.31-3.08,3.06-4.48,4.53-.9,1-1.61,1.71-1.9,2A.69.69,0,0,1,33.62,30.32Z"/><path class="cls-7" d="M40.18,29.33a.65.65,0,0,1-.66-.66v-5h-5a.66.66,0,1,1,0-1.32h5.65a.65.65,0,0,1,.65.66v5.64A.65.65,0,0,1,40.18,29.33Z"/></svg>