<svg id="Warstwa_1" data-name="Warstwa 1" xmlns="http://www.w3.org/2000/svg" xmlns:xlink="http://www.w3.org/1999/xlink" viewBox="0 0 60 40"><defs><style>.cls-1{fill:url(#linear-gradient);}.cls-2{fill:url(#linear-gradient-2);}.cls-3{fill:url(#linear-gradient-3);}.cls-4{fill:url(#linear-gradient-4);}.cls-5{fill:url(#linear-gradient-5);}.cls-6{fill:url(#linear-gradient-6);}.cls-7{fill:url(#linear-gradient-7);}.cls-8{fill:url(#linear-gradient-8);}.cls-9{fill:url(#linear-gradient-9);}.cls-10{fill:url(#linear-gradient-10);}.cls-11{fill:url(#linear-gradient-11);}.cls-12{fill:url(#linear-gradient-12);}.cls-13{fill:url(#linear-gradient-13);}.cls-14{fill:url(#linear-gradient-14);}</style><linearGradient id="linear-gradient" x1="12.09" y1="1.74" x2="41.51" y2="31.16" gradientUnits="userSpaceOnUse"><stop offset="0" stop-color="#4bbcce"/><stop offset="0.25" stop-color="#3da5b9"/><stop offset="0.5" stop-color="#357aac"/><stop offset="0.75" stop-color="#0b4984"/><stop offset="1" stop-color="#1a2a4f"/></linearGradient><linearGradient id="linear-gradient-2" x1="20.7" y1="-6.86" x2="50.12" y2="22.56" xlink:href="#linear-gradient"/><linearGradient id="linear-gradient-3" x1="3.43" y1="10.4" x2="32.86" y2="39.82" xlink:href="#linear-gradient"/><linearGradient id="linear-gradient-4" x1="3.46" y1="10.37" x2="32.88" y2="39.8" xlink:href="#linear-gradient"/><linearGradient id="linear-gradient-5" x1="20.68" y1="-6.84" x2="50.1" y2="22.58" xlink:href="#linear-gradient"/><linearGradient id="linear-gradient-6" x1="12.1" y1="1.74" x2="41.52" y2="31.16" xlink:href="#linear-gradient"/><linearGradient id="linear-gradient-7" x1="12.03" y1="1.8" x2="41.46" y2="31.22" xlink:href="#linear-gradient"/><linearGradient id="linear-gradient-8" x1="12.24" y1="1.59" x2="41.66" y2="31.01" xlink:href="#linear-gradient"/><linearGradient id="linear-gradient-9" x1="13.55" y1="0.28" x2="42.98" y2="29.7" xlink:href="#linear-gradient"/><linearGradient id="linear-gradient-10" x1="14.5" y1="-0.67" x2="43.92" y2="28.76" xlink:href="#linear-gradient"/><linearGradient id="linear-gradient-11" x1="9.35" y1="4.48" x2="38.78" y2="33.9" xlink:href="#linear-gradient"/><linearGradient id="linear-gradient-12" x1="10.36" y1="3.47" x2="39.78" y2="32.9" xlink:href="#linear-gradient"/><linearGradient id="linear-gradient-13" x1="10.01" y1="3.83" x2="39.43" y2="33.25" xlink:href="#linear-gradient"/><linearGradient id="linear-gradient-14" x1="13.13" y1="0.71" x2="42.55" y2="30.13" xlink:href="#linear-gradient"/></defs><title>Immediate exchanges</title><path class="cls-1" d="M35.86,31V29.81a4.51,4.51,0,0,1-1.06-.28,3.3,3.3,0,0,1-1-.59l.74-1.13a3.85,3.85,0,0,0,.82.49,2.14,2.14,0,0,0,.81.17,1,1,0,0,0,.7-.2.72.72,0,0,0,.23-.59.64.64,0,0,0-.23-.5,2.89,2.89,0,0,0-.56-.4c-.22-.12-.46-.25-.72-.37A4.27,4.27,0,0,1,34.9,26a2.5,2.5,0,0,1-.56-.61,1.61,1.61,0,0,1-.22-.87,2.09,2.09,0,0,1,.46-1.4,2.15,2.15,0,0,1,1.28-.72V21.18H37v1.15a2.38,2.38,0,0,1,1,.33,3.4,3.4,0,0,1,.75.61l-.85,1a2.37,2.37,0,0,0-.59-.43,1.38,1.38,0,0,0-.65-.14,1,1,0,0,0-.63.17.65.65,0,0,0-.22.56.57.57,0,0,0,.22.46,2.7,2.7,0,0,0,.56.36l.73.36A4.16,4.16,0,0,1,38,26a2.25,2.25,0,0,1,.55.64,1.72,1.72,0,0,1,.23.92A2.28,2.28,0,0,1,38.3,29a2.2,2.2,0,0,1-1.34.78V31Z"/><path class="cls-2" d="M43.48,18.53a.63.63,0,0,1-.62-.55,13.64,13.64,0,0,0-.5-2.28,12.28,12.28,0,0,0-.9-2.11,12.48,12.48,0,0,0-1.24-1.91A13.53,13.53,0,0,0,38.66,10a13.12,13.12,0,0,0-3.91-2.37A12.48,12.48,0,0,0,32.48,7,.63.63,0,0,1,32.7,5.8a14.47,14.47,0,0,1,2.5.69,13.67,13.67,0,0,1,2.27,1.12,14,14,0,0,1,2,1.48,13.4,13.4,0,0,1,1.71,1.82,13.91,13.91,0,0,1,2.35,4.41,13.45,13.45,0,0,1,.55,2.5.62.62,0,0,1-.54.7Z"/><path class="cls-3" d="M27.1,33.3H27a13.31,13.31,0,0,1-2.49-.69,13.72,13.72,0,0,1-2.28-1.11,14,14,0,0,1-2-1.49,14.65,14.65,0,0,1-1.71-1.81,14.18,14.18,0,0,1-1.37-2.09,14.91,14.91,0,0,1-1-2.33,14.11,14.11,0,0,1-.55-2.5.63.63,0,0,1,1.25-.15,11.8,11.8,0,0,0,.5,2.27,12.65,12.65,0,0,0,2.13,4,12.71,12.71,0,0,0,7.74,4.65.62.62,0,0,1-.11,1.24Z"/><path class="cls-4" d="M24.72,35.16A.63.63,0,0,1,24.36,34l2.38-1.63L25.1,30a.65.65,0,0,1,.16-.88.64.64,0,0,1,.88.17l2,2.89a.62.62,0,0,1-.16.87l-2.9,2A.63.63,0,0,1,24.72,35.16Z"/><path class="cls-5" d="M34.09,10.08a.62.62,0,0,1-.52-.27l-2-2.89a.63.63,0,0,1,.17-.87l2.89-2a.63.63,0,0,1,.87.16.62.62,0,0,1-.16.87L33,6.72,34.6,9.1a.62.62,0,0,1-.16.87A.58.58,0,0,1,34.09,10.08Z"/><path class="cls-6" d="M23.4,21.21A8.18,8.18,0,1,1,31.57,13,8.18,8.18,0,0,1,23.4,21.21Zm0-15.09A6.92,6.92,0,1,0,30.32,13,6.92,6.92,0,0,0,23.4,6.12Z"/><path class="cls-7" d="M36.3,34.23a8.17,8.17,0,1,1,8.16-8.17A8.19,8.19,0,0,1,36.3,34.23Zm0-15.08a6.91,6.91,0,1,0,6.91,6.91A6.92,6.92,0,0,0,36.3,19.15Z"/><path class="cls-8" d="M21.31,16.57V9h2.58a6.32,6.32,0,0,1,1.1.08,2.54,2.54,0,0,1,.88.31,1.64,1.64,0,0,1,.59.58,1.67,1.67,0,0,1,.22.9,2.24,2.24,0,0,1-.07.51,2,2,0,0,1-.2.48,1.48,1.48,0,0,1-.31.39,1,1,0,0,1-.41.26v.05a1.69,1.69,0,0,1,.54.21,1.64,1.64,0,0,1,.42.37,1.42,1.42,0,0,1,.29.51,2.23,2.23,0,0,1-.12,1.68,2,2,0,0,1-.62.69,3,3,0,0,1-.94.4,4.65,4.65,0,0,1-1.15.14ZM23,12h.8a1.4,1.4,0,0,0,.91-.24.81.81,0,0,0,.29-.65.71.71,0,0,0-.29-.63,1.76,1.76,0,0,0-.9-.18H23Zm0,3.21h1c.93,0,1.4-.34,1.4-1a.77.77,0,0,0-.35-.71A2.07,2.07,0,0,0,24,13.3H23Z"/><rect class="cls-9" x="21.31" y="7.86" width="0.98" height="1.33"/><rect class="cls-10" x="23.2" y="7.86" width="0.98" height="1.33"/><rect class="cls-11" x="21.31" y="16.26" width="0.98" height="1.33"/><rect class="cls-12" x="23.32" y="16.26" width="0.98" height="1.33"/><rect class="cls-13" x="20.36" y="15.24" width="3.45" height="1.32"/><rect class="cls-14" x="20.36" y="9.01" width="3.45" height="1.32"/></svg>