<?xml version="1.0" encoding="utf-8"?>
<!-- Generator: Adobe Illustrator 16.0.0, SVG Export Plug-In . SVG Version: 6.00 Build 0)  -->
<!DOCTYPE svg PUBLIC "-//W3C//DTD SVG 1.1//EN" "http://www.w3.org/Graphics/SVG/1.1/DTD/svg11.dtd">
<svg version="1.1" id="Layer_1" xmlns="http://www.w3.org/2000/svg" xmlns:xlink="http://www.w3.org/1999/xlink" x="0px" y="0px"
	 width="1565.301px" height="296.399px" viewBox="0 0 1565.301 296.399" enable-background="new 0 0 1565.301 296.399"
	 xml:space="preserve">
<path fill="#FFFFFF" d="M491.454,191.877c0-40.852,25.935-61.28,56.46-61.28c19.74,0,34.656,11.248,42.69,29.375
	c8.492-18.126,23.413-29.375,42.919-29.375c31.446,0,56.46,20.428,56.46,61.28v96.854h-27.54v-93.873
	c0-26.623-11.248-39.93-28.92-39.93c-17.672,0-29.149,15.379-29.149,44.982v88.82h-27.082v-88.82
	c0-29.604-11.473-44.982-29.378-44.982c-17.672,0-28.92,13.307-28.92,39.93v93.873h-27.54V191.877z"/>
<path fill="#FFFFFF" d="M729.692,198.305c0-45.441,26.623-67.708,62.425-67.708c36.033,0,62.656,22.496,62.656,67.708v26.623
	c0,45.213-26.623,67.707-62.656,67.707c-35.802,0-62.425-22.494-62.425-67.707V198.305z M792.117,268.535L792.117,268.535
	c21.12,0,35.115-12.619,35.115-44.982V199.91c0-32.593-13.536-44.982-35.115-44.982c-21.115,0-34.885,12.39-34.885,44.982v23.643
	C757.232,255.916,770.543,268.535,792.117,268.535L792.117,268.535z"/>
<path fill="#FFFFFF" d="M890.125,71.611l27.541-5.966v75.737c8.492-5.048,21.57-10.785,35.344-10.785
	c31.217,0,58.986,20.428,58.986,64.719v33.051c0,41.543-28.229,64.268-60.82,64.268c-32.594,0-61.051-22.725-61.051-64.268V71.611z
	 M951.176,268.535L951.176,268.535c18.359,0,33.51-13.316,33.51-41.773V196.93c0-31.217-15.379-42.002-33.739-42.002
	c-11.481,0-22.495,4.127-33.28,10.555v61.279C917.666,255.219,932.357,268.535,951.176,268.535L951.176,268.535z"/>
<path fill="#FFFFFF" d="M1049.863,91.122c0-9.18,7.574-16.755,17.213-16.755c9.41,0,17.443,7.575,17.443,16.755
	c0,9.409-8.033,17.213-17.443,17.213C1057.438,108.335,1049.863,100.76,1049.863,91.122L1049.863,91.122z M1053.311,134.5
	L1053.311,134.5h27.54V288.73h-27.54V134.5z"/>
<polygon fill="#FFFFFF" points="1127.668,71.611 1155.208,65.645 1155.208,288.73 1127.668,288.73 "/>
<path fill="#FFFFFF" d="M1200.428,134.5h27.541v94.097c0,26.622,13.078,39.938,31.676,39.938c18.818,0,32.126-13.316,32.126-39.938
	V134.5h27.548v95.71c0,40.618-27.081,62.425-59.674,62.425c-32.822,0-59.217-21.807-59.217-62.425V134.5z"/>
<path fill="#FFFFFF" d="M1362.926,191.877c0-40.852,25.705-61.28,56.456-61.28c19.744,0,34.656,11.248,42.689,29.375
	c8.492-18.126,23.413-29.375,42.92-29.375c31.446,0,56.464,20.428,56.464,61.28v96.854h-27.54v-93.873
	c0-26.623-11.252-39.93-28.924-39.93c-17.673,0-29.146,15.379-29.146,44.982v88.82h-27.311v-88.82
	c0-29.604-11.252-44.982-29.153-44.982c-17.672,0-28.916,13.307-28.916,39.93v93.873h-27.54V191.877z"/>
<path fill="#FFFFFF" d="M372.563,188.269c0-101.902-82.854-184.756-184.759-184.756C85.902,3.513,3.045,86.366,3.045,188.269
	c0,36.957,11.019,71.383,29.837,100.299h32.822c-22.492-27.311-36.036-62.195-36.036-100.299
	c0-87.215,70.922-158.133,158.136-158.133c87.218,0,158.136,70.918,158.136,158.133c0,10.334-0.688,18.826-1.834,26.631h-0.229
	c-6.658,46.129-42.002,49.109-45.446,49.34h-11.477v-72.753c0-40.626-25.018-61.054-56.46-61.054
	c-19.506,0-34.427,11.019-42.919,29.378c-8.033-18.36-22.95-29.378-42.69-29.378c-30.525,0-56.46,20.428-56.46,61.054v97.081h27.54
	v-94.1c0-26.623,11.248-39.701,28.92-39.701c17.902,0,29.379,15.141,29.379,44.753v89.048h27.082V199.52
	c0-29.612,11.477-44.753,29.149-44.753s28.92,13.078,28.92,39.701v94.1h13.082h14.458h11.936
	c16.067-0.457,44.757-10.326,60.133-40.855C367.515,231.653,372.563,209.847,372.563,188.269L372.563,188.269z"/>
</svg>
